<svg width="768" height="768" viewBox="0 0 768 768" fill="none" xmlns="http://www.w3.org/2000/svg">
<g clip-path="url(#clip0_1_403)">
<path d="M0 15.5H768" stroke="#52525B"/>
<path d="M0 15.5H768" stroke="#52525B"/>
<path d="M0 31.5H768" stroke="#52525B"/>
<path d="M0 47.5H768" stroke="#52525B"/>
<path d="M0 63.5H768" stroke="#52525B"/>
<path d="M0 79.5H768" stroke="#52525B"/>
<path d="M0 95.5H768" stroke="#52525B"/>
<path d="M0 111.5H768" stroke="#52525B"/>
<path d="M0 127.5H768" stroke="#52525B"/>
<path d="M0 143.5H768" stroke="#52525B"/>
<path d="M0 159.5H768" stroke="#52525B"/>
<path d="M0 175.5H768" stroke="#52525B"/>
<path d="M0 191.5H768" stroke="#52525B"/>
<path d="M0 207.5H768" stroke="#52525B"/>
<path d="M0 223.5H768" stroke="#52525B"/>
<path d="M0 239.5H768" stroke="#52525B"/>
<path d="M0 255.5H768" stroke="#52525B"/>
<path d="M0 271.5H768" stroke="#52525B"/>
<path d="M0 287.5H768" stroke="#52525B"/>
<path d="M0 303.5H768" stroke="#52525B"/>
<path d="M0 319.5H768" stroke="#52525B"/>
<path d="M0 335.5H768" stroke="#52525B"/>
<path d="M0 351.5H768" stroke="#52525B"/>
<path d="M0 367.5H768" stroke="#52525B"/>
<path d="M0 383.5H768" stroke="#52525B"/>
<path d="M0 399.5H768" stroke="#52525B"/>
<path d="M0 415.5H768" stroke="#52525B"/>
<path d="M0 431.5H768" stroke="#52525B"/>
<path d="M0 447.5H768" stroke="#52525B"/>
<path d="M0 463.5H768" stroke="#52525B"/>
<path d="M0 479.5H768" stroke="#52525B"/>
<path d="M0 495.5H768" stroke="#52525B"/>
<path d="M0 511.5H768" stroke="#52525B"/>
<path d="M0 495.5H768" stroke="#52525B"/>
<path d="M0 511.5H768" stroke="#52525B"/>
<path d="M0 527.5H768" stroke="#52525B"/>
<path d="M0 543.5H768" stroke="#52525B"/>
<path d="M0 559.5H768" stroke="#52525B"/>
<path d="M0 575.5H768" stroke="#52525B"/>
<path d="M0 591.5H768" stroke="#52525B"/>
<path d="M0 607.5H768" stroke="#52525B"/>
<path d="M0 623.5H768" stroke="#52525B"/>
<path d="M0 639.5H768" stroke="#52525B"/>
<path d="M0 655.5H768" stroke="#52525B"/>
<path d="M0 671.5H768" stroke="#52525B"/>
<path d="M0 687.5H768" stroke="#52525B"/>
<path d="M0 703.5H768" stroke="#52525B"/>
<path d="M0 719.5H768" stroke="#52525B"/>
<path d="M0 735.5H768" stroke="#52525B"/>
<path d="M0 751.5H768" stroke="#52525B"/>
<path d="M15.5 768V0" stroke="#52525B"/>
<path d="M15.5 768V0" stroke="#52525B"/>
<path d="M31.5 768V0" stroke="#52525B"/>
<path d="M47.5 768V0" stroke="#52525B"/>
<path d="M63.5 768V0" stroke="#52525B"/>
<path d="M79.5 768V0" stroke="#52525B"/>
<path d="M95.5 768V0" stroke="#52525B"/>
<path d="M111.5 768V0" stroke="#52525B"/>
<path d="M127.5 768V0" stroke="#52525B"/>
<path d="M143.5 768V0" stroke="#52525B"/>
<path d="M159.5 768V0" stroke="#52525B"/>
<path d="M175.5 768V0" stroke="#52525B"/>
<path d="M191.5 768V0" stroke="#52525B"/>
<path d="M207.5 768V0" stroke="#52525B"/>
<path d="M223.5 768V0" stroke="#52525B"/>
<path d="M239.5 768V0" stroke="#52525B"/>
<path d="M255.5 768V0" stroke="#52525B"/>
<path d="M271.5 768V0" stroke="#52525B"/>
<path d="M287.5 768V0" stroke="#52525B"/>
<path d="M303.5 768V0" stroke="#52525B"/>
<path d="M319.5 768V0" stroke="#52525B"/>
<path d="M335.5 768V0" stroke="#52525B"/>
<path d="M351.5 768V0" stroke="#52525B"/>
<path d="M367.5 768V0" stroke="#52525B"/>
<path d="M383.5 768V0" stroke="#52525B"/>
<path d="M399.5 768V0" stroke="#52525B"/>
<path d="M415.5 768V0" stroke="#52525B"/>
<path d="M431.5 768V0" stroke="#52525B"/>
<path d="M447.5 768V0" stroke="#52525B"/>
<path d="M463.5 768V0" stroke="#52525B"/>
<path d="M479.5 768V0" stroke="#52525B"/>
<path d="M495.5 768V0" stroke="#52525B"/>
<path d="M511.5 768V0" stroke="#52525B"/>
<path d="M495.5 768V0" stroke="#52525B"/>
<path d="M511.5 768V0" stroke="#52525B"/>
<path d="M527.5 768V0" stroke="#52525B"/>
<path d="M543.5 768V0" stroke="#52525B"/>
<path d="M559.5 768V0" stroke="#52525B"/>
<path d="M575.5 768V0" stroke="#52525B"/>
<path d="M591.5 768V0" stroke="#52525B"/>
<path d="M607.5 768V0" stroke="#52525B"/>
<path d="M623.5 768V0" stroke="#52525B"/>
<path d="M639.5 768V0" stroke="#52525B"/>
<path d="M655.5 768V0" stroke="#52525B"/>
<path d="M671.5 768V0" stroke="#52525B"/>
<path d="M687.5 768V0" stroke="#52525B"/>
<path d="M703.5 768V0" stroke="#52525B"/>
<path d="M719.5 768V0" stroke="#52525B"/>
<path d="M735.5 768V0" stroke="#52525B"/>
<path d="M751.5 768V0" stroke="#52525B"/>
</g>
<defs>
<clipPath id="clip0_1_403">
<rect width="768" height="768" fill="white"/>
</clipPath>
</defs>
</svg>
